<svg data-v-fde0c5aa="" xmlns="http://www.w3.org/2000/svg" viewBox="0 0 300 300" class="font"><!----><defs data-v-fde0c5aa=""><!----></defs><rect data-v-fde0c5aa="" fill="none" x="0" y="0" width="300px" height="300px" class="logo-background-square"></rect><defs data-v-fde0c5aa=""><linearGradient data-v-fde0c5aa="" gradientTransform="rotate(25)" id="6972cf07-4a0f-49dc-aaa2-af766b0173b9" x1="0%" y1="0%" x2="100%" y2="0%"><stop data-v-fde0c5aa="" offset="0%" stop-color="#0D7CE9" stop-opacity="1"></stop><stop data-v-fde0c5aa="" offset="100%" stop-color="#15CFF1" stop-opacity="1"></stop></linearGradient></defs><g data-v-fde0c5aa="" id="15a8c876-d5e8-42f9-a3ef-8ccf8811c53c" fill="url(#6972cf07-4a0f-49dc-aaa2-af766b0173b9)" transform="matrix(18.534119808008565,0,0,18.534119808008565,42.224094465338595,-1.5164241278158102)"><path d="M0.66 3.61L-0.12 4.76L0.03 4.87Q0.39 4.56 3.11 4.66L3.11 4.66Q2.87 5.03 2.47 5.60L2.47 5.60L2.50 11.44Q2.75 12.48 3.20 12.74L3.20 12.74L4.31 11.85L4.20 11.62Q3.66 12.04 3.60 10.42L3.60 10.42L3.67 4.66L5.58 4.66L6.49 3.77L6.37 3.63L0.66 3.61ZM7.66 3.85L6.67 4.96L6.79 5.13Q7.21 4.75 10.36 4.81L10.36 4.81L10.35 10.12Q10.38 11.14 10.27 11.37L10.27 11.37Q9.52 11.91 8.72 11.58Q7.92 11.26 7.39 10.64Q6.86 10.03 7.13 8.84L7.13 8.84L6.92 8.80L6.01 10.06Q6.34 11.44 7.18 12.04Q8.02 12.63 9.29 12.71L9.29 12.71Q11.18 11.52 11.50 9.99L11.50 9.99L11.47 5.09Q11.41 4.29 11.75 4.04L11.75 4.04L11.65 3.85L7.66 3.85Z"></path></g><!----><!----></svg>